<?xml version="1.0" standalone="no"?>
<!DOCTYPE svg PUBLIC "-//W3C//DTD SVG 20010904//EN"
 "http://www.w3.org/TR/2001/REC-SVG-20010904/DTD/svg10.dtd">
<svg version="1.0" xmlns="http://www.w3.org/2000/svg"
 width="5241.000000pt" height="5241.000000pt" viewBox="0 0 5241.000000 5241.000000"
 preserveAspectRatio="xMidYMid meet">
<metadata>
Created by potrace 1.14, written by Peter Selinger 2001-2017
</metadata>
<g transform="translate(0.000000,5241.000000) scale(0.100000,-0.100000)"
fill="#000000" stroke="none">
<path d="M22175 32234 c-1539 -82 -2774 -607 -3780 -1609 -517 -515 -938
-1105 -1254 -1757 -366 -754 -574 -1553 -658 -2518 -22 -259 -25 -1066 -5
-1315 86 -1060 304 -1884 713 -2695 588 -1167 1494 -2089 2574 -2620 665 -327
1324 -501 2170 -572 230 -19 895 -16 1125 5 517 49 958 141 1415 297 666 229
1295 593 1870 1086 178 152 537 508 653 649 86 103 152 218 152 264 0 67 -235
394 -716 996 -300 376 -424 515 -461 515 -27 0 -218 -159 -518 -430 -281 -254
-491 -420 -740 -585 -548 -364 -1126 -580 -1750 -657 -170 -20 -721 -17 -905
5 -455 56 -837 171 -1207 361 -531 275 -1000 729 -1350 1308 -365 603 -583
1294 -669 2118 -21 208 -30 861 -15 1087 87 1248 502 2255 1231 2983 669 669
1552 994 2625 967 532 -14 982 -114 1437 -322 409 -186 772 -451 1254 -915
303 -292 473 -426 555 -437 32 -5 45 -1 74 22 177 135 919 1260 1015 1540 25
73 25 101 -1 178 -41 124 -185 305 -445 563 -811 804 -1851 1286 -3107 1439
-276 34 -491 46 -847 49 -201 2 -396 2 -435 0z"/>
<path d="M33455 32210 c-1104 -75 -2049 -377 -2875 -917 -917 -601 -1720
-1539 -2197 -2568 -411 -885 -611 -1795 -639 -2905 -34 -1369 276 -2623 914
-3695 415 -697 1025 -1380 1657 -1854 1205 -902 2638 -1262 4405 -1105 976 86
1842 328 2645 738 191 97 456 249 564 322 l33 22 52 -33 c151 -96 684 -360
961 -476 202 -84 305 -112 383 -105 75 6 144 35 167 69 33 52 35 83 15 331
-54 676 -107 1495 -135 2076 -40 870 -43 1464 -11 2360 21 571 24 954 8 1006
-15 51 -48 101 -85 128 -27 20 -41 21 -220 20 -106 -1 -302 -7 -437 -14 -338
-18 -726 -16 -1040 5 -146 9 -346 18 -445 19 -162 1 -184 -1 -219 -19 -79 -40
-81 -49 -78 -283 4 -337 30 -755 77 -1237 84 -851 185 -1940 185 -1982 0 -26
-13 -36 -148 -115 -776 -456 -1584 -711 -2487 -784 -259 -21 -789 -15 -970 10
-831 117 -1489 452 -2085 1062 -693 710 -1145 1618 -1290 2596 -50 334 -67
843 -40 1183 75 969 380 1792 935 2530 751 999 1737 1505 2931 1505 300 0 519
-27 779 -95 751 -197 1367 -616 2128 -1450 247 -271 488 -512 538 -539 47 -25
68 -18 154 46 184 139 888 871 1152 1198 118 147 163 224 163 282 0 136 -298
535 -700 939 -473 475 -918 790 -1560 1103 -684 334 -1345 524 -2110 607 -211
23 -844 34 -1075 19z"/>
<path d="M41125 31921 c-52 -23 -92 -71 -101 -119 -8 -44 2 -823 16 -1267 18
-552 40 -1104 75 -1880 32 -704 49 -1123 76 -1840 5 -154 13 -624 16 -1045 7
-921 -3 -1426 -62 -3175 -47 -1396 -63 -2014 -67 -2660 l-3 -390 23 -48 c17
-34 37 -55 70 -75 l47 -27 578 2 c318 1 946 9 1395 19 499 11 1185 18 1762 19
1012 0 1029 0 2250 -65 1048 -56 1887 -87 2105 -78 86 4 122 10 163 28 66 29
134 102 162 176 47 128 98 455 125 814 17 233 40 971 32 1042 -8 64 -29 102
-74 130 -61 37 -215 31 -523 -20 -330 -55 -433 -69 -650 -87 -1012 -83 -2280
-126 -4130 -141 -629 -5 -851 -4 -867 4 -40 22 -78 182 -102 432 -44 451 -51
1050 -41 3285 5 1067 14 2089 19 2270 18 588 31 968 56 1635 49 1313 63 1804
71 2455 l6 510 -23 35 c-13 19 -44 46 -69 58 -44 23 -48 24 -275 18 -126 -3
-320 -13 -430 -22 -288 -24 -671 -23 -1016 4 -352 28 -558 29 -614 3z"/>
<path d="M2844 31583 c-77 -98 -515 -652 -972 -1230 l-831 -1053 1919 0 1920
0 -572 743 c-1064 1382 -1311 1702 -1318 1710 -3 4 -69 -73 -146 -170z"/>
<path d="M3490 31756 c0 -2 296 -393 658 -868 361 -475 781 -1026 932 -1225
151 -199 277 -362 280 -362 4 0 1902 2365 1953 2434 l19 25 -1921 0 c-1057 0
-1921 -2 -1921 -4z"/>
<path d="M8170 31753 c0 -7 574 -763 1503 -1981 342 -449 362 -472 378 -455
29 31 1949 2432 1949 2438 0 3 -862 5 -1915 5 -1053 0 -1915 -3 -1915 -7z"/>
<path d="M6962 30878 c-379 -480 -814 -1030 -966 -1223 l-276 -350 961 -3
c528 -1 1390 -1 1915 0 l955 3 -362 470 c-1112 1445 -1522 1975 -1530 1975 -4
0 -318 -393 -697 -872z"/>
<path d="M11528 30553 c-442 -560 -877 -1110 -966 -1223 -89 -113 -162 -208
-162 -212 0 -5 862 -8 1916 -8 1532 0 1914 3 1907 13 -6 6 -266 345 -579 752
-976 1268 -1306 1695 -1309 1695 -2 0 -365 -458 -807 -1017z"/>
<path d="M1133 27273 c115 -176 3695 -5646 4436 -6778 332 -506 804 -1227
1049 -1602 246 -375 447 -681 448 -680 2 2 -526 2774 -1292 6784 l-459 2403
-2132 0 -2133 0 83 -127z"/>
<path d="M5770 27388 c0 -10 751 -4001 1279 -6798 88 -465 223 -1180 300
-1590 78 -410 142 -749 144 -753 1 -4 62 286 134 645 73 359 218 1076 323
1593 105 517 461 2277 791 3910 330 1634 602 2978 605 2988 5 16 -85 17 -1785
17 -1366 0 -1791 -3 -1791 -12z"/>
<path d="M9790 27391 c0 -5 -288 -1424 -640 -3153 -668 -3276 -833 -4086
-1075 -5278 -79 -393 -147 -724 -149 -734 -3 -10 -1 -15 3 -10 4 5 223 326
486 714 264 388 746 1099 1074 1580 327 481 1485 2187 2574 3790 1089 1603
2008 2957 2043 3008 l64 92 -2190 0 c-1351 0 -2190 -4 -2190 -9z"/>
</g>
</svg>
